<svg xmlns="http://www.w3.org/2000/svg" viewBox="0 0 500 500"><defs><style>.cls-1{fill:#008e51;}.cls-2{fill:#47c78e;}.cls-3{fill:#f3e697;}.cls-4{fill:#e7da8c;}.cls-5{fill:#dbcf88;}.cls-6{fill:#8c743b;}</style></defs><title>icon_SVG</title><g id="Layer_2_copy" data-name="Layer 2 copy"><circle class="cls-1" cx="250" cy="257.9" r="235.1"/><circle class="cls-2" cx="250" cy="242.1" r="235.1"/><path class="cls-3" d="M79.24,242.1A170.76,170.76,0,0,0,250,412.86V71.34A170.76,170.76,0,0,0,79.24,242.1Z"/><path class="cls-4" d="M250,71.34V412.86a170.76,170.76,0,0,0,0-341.52Z"/><path class="cls-5" d="M279.7,276.75V135.69H235.15L160.91,276.75v37.12h76.72v54.44H279.7V313.87h24.74V276.75Zm-42.07,0H195.56l42.07-84.14Z"/><path class="cls-6" d="M279.7,257V115.89H235.15L160.91,257v37.12h76.72v54.45H279.7V294.07h24.74V257Zm-42.07,0H195.56l42.07-84.14Z"/></g></svg>